<svg xmlns="http://www.w3.org/2000/svg" xmlns:xlink="http://www.w3.org/1999/xlink" xmlns:svgjs="http://svgjs.com/svgjs" id="SvgjsSvg1001" version="1.1" viewBox="0 118.52 288 50.95"><defs id="SvgjsDefs1002"/><g id="SvgjsG1008" transform="matrix(1,0,0,1,0,0)"><svg xmlns="http://www.w3.org/2000/svg" width="288" height="288" fill="none" viewBox="0 0 130 23"><path fill="#ffffff" fill-rule="evenodd" d="M62.9477 0.329021C62.6415 0.516679 61.9068 0.698918 61.0231 0.806682L59.5937 0.980869L59.6408 1.45807C59.6877 1.93433 59.6903 1.93557 60.744 1.98125L61.8001 2.02692V4.96179C61.8001 6.57593 61.7581 7.8965 61.707 7.8965C61.6558 7.8965 61.1245 7.74941 60.5262 7.56949C59.6422 7.3038 59.1395 7.25363 57.8422 7.30132C56.3954 7.35459 56.134 7.41265 55.0523 7.92143C54.3958 8.23017 53.5763 8.73524 53.2311 9.04382C49.8547 12.0628 49.6294 18.4688 52.799 21.3357C53.8142 22.2539 54.7042 22.688 56.0455 22.9191C57.7247 23.2086 59.7405 22.7051 61.0477 21.6695C61.3654 21.4179 61.6638 21.2122 61.7109 21.2122C61.7578 21.2122 61.8414 21.4909 61.8964 21.8315L61.9966 22.4508H64.1669H66.3373V21.9089V21.367H65.2812H64.2251L64.2674 10.6835L64.3096 0L63.8762 0.0128512C63.6379 0.0198187 63.2201 0.162265 62.9477 0.329021ZM91.6393 0.344814C91.2641 0.538046 90.5922 0.680183 89.801 0.733755L88.554 0.818449V1.41564V2.01283H89.6101L90.6662 2.01268L90.5879 11.2711C90.5009 21.5632 90.5401 21.2109 89.4528 21.4879C89.059 21.5881 88.934 21.7107 88.8957 22.034L88.8461 22.4508H91.9075H94.9687V21.9089V21.367H94.0691H93.1695V10.6837V0.000464245L92.7001 0.020438C92.4419 0.0314312 91.9646 0.177439 91.6393 0.344814ZM117.292 0.337072C116.942 0.526743 116.15 0.726013 115.376 0.818759L114.056 0.977154V1.48795V1.99874L115.078 2.04442L116.1 2.09025L116.093 12.348L116.086 22.6057H116.56C116.926 22.6057 117.104 22.4919 117.344 22.1025C117.514 21.8258 117.673 21.5413 117.698 21.4704C117.722 21.3995 118.117 21.5914 118.575 21.8965C119.687 22.6373 120.9 22.9788 122.348 22.9593C127.439 22.8906 130.935 18.0268 129.778 12.6216C129.1 9.45335 126.768 7.32687 123.786 7.15593C122.075 7.05793 120.972 7.32346 119.768 8.1224C119.216 8.48874 118.723 8.74731 118.673 8.6973C118.622 8.64729 118.59 6.68725 118.602 4.34184L118.624 0.0774167L118.257 0.0455208C118.055 0.0278698 117.621 0.159168 117.292 0.337072ZM76.2145 1.47727C71.9598 2.39094 68.9395 6.01373 68.357 10.9023C67.9383 14.4145 68.9662 17.7071 71.1913 19.9808C72.8468 21.6726 74.7016 22.5849 77.1687 22.9211C79.2921 23.2103 82.0722 22.6264 83.9633 21.4941C84.8387 20.9699 86.833 19.0605 86.833 18.7466C86.833 18.6514 86.6745 18.5018 86.4808 18.4145C86.1715 18.2751 86.023 18.3569 85.2642 19.0841C84.3436 19.9665 83.096 20.71 81.7754 21.1632C80.5347 21.589 77.8171 21.544 76.6253 21.0778C72.6223 19.5116 70.4987 14.7874 71.4279 9.51451C72.2432 4.88732 75.8093 1.89702 79.8386 2.46185C82.3436 2.81286 84.4674 4.81005 84.8768 7.19975C85.0669 8.31037 85.0999 8.361 85.6309 8.361L86.1289 8.36116L86.0944 4.91596L86.0599 1.47092L85.3512 1.42369L84.6426 1.37647V2.17216C84.6426 2.60972 84.5899 2.94075 84.5253 2.90793C83.0602 2.16333 81.7457 1.63736 80.9132 1.46271C79.6122 1.18989 77.5229 1.19624 76.2145 1.47727ZM0 2.24508V2.94183H1.02306H2.04613L2.00091 11.6788C1.95648 20.2561 1.94975 20.4236 1.62949 20.8526C1.41702 21.1372 1.0761 21.3404 0.651639 21.4354C0.07682 21.5641 0 21.6325 0 22.0161V22.4508H3.75494H7.50988V21.9148V21.3786L6.06266 21.3342L4.61545 21.2896V16.9543V12.6189H6.67738C9.36388 12.6189 9.62172 12.7762 9.93104 14.6025C10.0207 15.1323 10.0739 15.1876 10.4523 15.1444L10.8737 15.0963L10.9161 12.0383L10.9585 8.98034H10.2741H9.58981L9.65098 9.79321C9.68462 10.2404 9.73249 10.7976 9.75737 11.0319L9.80259 11.4577H7.15379H4.50515L4.56022 7.67555C4.61201 4.12584 4.63563 3.8665 4.94307 3.45635C5.39569 2.85234 6.09505 2.65106 7.77601 2.64084C11.2648 2.61978 12.6365 3.49412 12.9236 5.92238C13.0245 6.77458 13.0481 6.81267 13.4768 6.81267H13.9246V5.59785C13.9246 4.92958 13.8789 3.74511 13.8229 2.96568L13.7213 1.54833H6.86059H0V2.24508ZM20.7168 7.55958C16.7401 8.91995 14.4786 13.7659 15.8853 17.9127C16.3515 19.2871 16.8749 20.0858 17.9782 21.1069C18.9457 22.0021 20.0764 22.5411 21.6568 22.8599C25.1586 23.5667 28.6483 21.4559 30.0125 17.8058C30.4671 16.5896 30.6323 14.4172 30.3667 13.1508C29.8231 10.5607 27.8064 8.33282 25.3091 7.56361C24.0784 7.18458 21.8189 7.18257 20.7168 7.55958ZM38.2398 7.55958C34.2632 8.91995 32.0016 13.7659 33.4083 17.9127C34.3153 20.5863 36.2541 22.2582 39.1381 22.8533C41.9111 23.4255 44.8229 22.2152 46.4788 19.8021C48.246 17.2266 48.5299 13.7966 47.1916 11.189C46.3629 9.57459 44.5993 8.10785 42.8321 7.56361C41.6015 7.18458 39.3419 7.18257 38.2398 7.55958ZM99.7569 7.77898C99.3377 8.00334 98.7634 8.1272 97.9185 8.17551L96.6897 8.24596V8.7679V9.29H97.7067H98.7236L98.7263 13.8189C98.7299 19.6069 98.9181 20.6368 100.198 21.8667C101.354 22.9782 103.693 23.3074 105.505 22.6133C106.007 22.4206 106.872 21.9561 107.426 21.581C108.494 20.8573 108.533 20.8655 108.613 21.8315L108.659 22.3734L110.81 22.4165L112.961 22.4595V21.9204V21.3811L111.934 21.3354L110.907 21.2896L110.922 14.3608L110.936 7.432H110.534C110.313 7.432 109.836 7.58296 109.474 7.76737C109.027 7.99451 108.424 8.12566 107.603 8.17427L106.39 8.24596V8.76094V9.27591L107.408 9.32159C107.968 9.34683 108.426 9.41975 108.425 9.48354C108.425 9.54734 108.424 11.7807 108.424 14.4464V19.293L107.759 19.9585C106.608 21.1103 105.872 21.4444 104.485 21.4444C103.517 21.4444 103.201 21.3826 102.852 21.1252C101.494 20.1232 101.387 19.5225 101.385 12.8899L101.383 7.432L100.875 7.44238C100.595 7.4481 100.092 7.59953 99.7569 7.77898ZM24.1134 8.51847C27.6781 9.49841 28.7622 18.1867 25.6652 20.9558C24.3239 22.155 22.1654 22.1201 20.7374 20.8763C18.0013 18.4928 17.7787 11.6966 20.3596 9.33831C21.2789 8.49834 22.8175 8.16235 24.1134 8.51847ZM41.6365 8.51847C43.4357 9.01316 44.7293 11.4478 44.9782 14.808C45.2268 18.1643 43.9306 21.1296 41.9804 21.6655C38.6277 22.5868 36.0889 19.5952 36.0768 14.7092C36.0692 11.5738 37.2287 9.2578 39.1514 8.5677C39.7928 8.33747 40.8982 8.31564 41.6365 8.51847ZM60.6719 8.88635C61.1081 9.10513 61.5156 9.3651 61.5774 9.46404C61.6392 9.56297 61.6779 11.9137 61.6635 14.6875L61.6372 19.7309L61.2379 20.1434C60.6895 20.7097 59.4892 21.3329 58.7083 21.4565C56.6167 21.7875 54.9938 20.6325 54.1225 18.1929C53.7113 17.0413 53.5373 14.1206 53.8044 12.8512C54.2667 10.6539 55.5315 9.06054 57.2619 8.49571C58.0088 8.25185 59.8204 8.45932 60.6719 8.88635ZM124.37 9.09693C125.936 10.0555 126.69 11.7522 126.841 14.6589C126.975 17.2415 126.565 18.9247 125.466 20.2976C124.053 22.063 121.088 22.3751 119.676 20.9072C118.763 19.9585 118.672 19.3833 118.672 14.5757V10.339L119.35 9.74289C120.824 8.44771 122.877 8.18356 124.37 9.09693Z" clip-rule="evenodd" class="color000 svgShape"/></svg></g></svg>