<?xml version="1.0" encoding="iso-8859-1"?>
<!-- Generator: Adobe Illustrator 19.0.0, SVG Export Plug-In . SVG Version: 6.00 Build 0)  -->
<svg version="1.1" id="Layer_1" xmlns="http://www.w3.org/2000/svg" xmlns:xlink="http://www.w3.org/1999/xlink" x="0px" y="0px"
	 viewBox="0 0 512 512" style="enable-background:new 0 0 512 512;" xml:space="preserve">
<defs>
	<style>
		@media (prefers-color-scheme:dark) {
			path { fill: white; }
		}
	</style>
</defs>
<g>
	<g>
		<path d="M406.988,84.282c-19.535,0-38.188,5.269-54.409,15.149c-6.154-14.402-15.515-27.375-27.502-37.858
			C305.957,44.855,281.424,35.647,256,35.647s-49.957,9.207-69.077,25.925c-11.989,10.482-21.348,23.456-27.502,37.858
			c-16.22-9.879-34.874-15.149-54.409-15.149C47.108,84.282,0,131.39,0,189.294c0,52.224,38.317,95.666,88.317,103.686v183.373
			h335.368V292.98C473.683,284.96,512,241.518,512,189.294C512,131.39,464.892,84.282,406.988,84.282z M390.293,442.961H121.708
			V390.42h268.585V442.961z M406.988,260.915h-16.696v96.115H121.708v-96.115h-16.696c-39.492,0-71.621-32.129-71.621-71.621
			s32.129-71.621,71.621-71.621c19.612,0,37.924,7.795,51.562,21.948l23.707,24.601l4.843-33.819
			C190.132,95.42,220.603,69.04,256,69.04s65.868,26.38,70.876,61.363l4.843,33.819l23.707-24.601
			c13.638-14.153,31.951-21.948,51.562-21.948c39.492,0,71.621,32.129,71.621,71.621S446.48,260.915,406.988,260.915z"/>
	</g>
</g>
<g>
</g>
<g>
</g>
<g>
</g>
<g>
</g>
<g>
</g>
<g>
</g>
<g>
</g>
<g>
</g>
<g>
</g>
<g>
</g>
<g>
</g>
<g>
</g>
<g>
</g>
<g>
</g>
<g>
</g>
</svg>
